<svg width="555" height="165" viewBox="0 0 555 165" fill="none" xmlns="http://www.w3.org/2000/svg">
<path d="M81.915 0.00985955C81.9115 0.0655894 76.7948 82.5052 153.475 82.5052C77.2544 82.5052 81.8537 163.969 81.915 165L0.0720438 164.99C0.0714637 164.981 -5.07028 82.4953 71.632 82.4953C-5.05325 82.5051 0.0705022 0.0346456 0.0720438 0.00985955H81.915Z" fill="white"/>
<path d="M554.928 0C554.93 0.0331456 560.059 82.4953 483.368 82.4953C560.05 82.4953 554.931 164.939 554.928 164.99H473.085C473.087 164.943 478.209 82.4954 401.525 82.4953C478.219 82.4952 473.086 0.0267731 473.085 0H554.928Z" fill="white"/>
<path d="M259.197 77.2496C200.088 57.0088 190.348 0.0682822 190.338 0.00985955H113.631C113.629 0.0430573 108.5 82.5052 185.191 82.5052C108.496 82.5052 113.63 164.976 113.631 165H190.338C190.347 164.945 200.142 107.676 259.703 87.5873L259.704 87.7231C224.401 110.598 220.804 164.853 220.804 164.853L277.5 164.784L334.196 164.853C334.196 164.853 330.604 110.594 295.295 87.7209L295.296 87.5837C354.864 107.668 364.661 164.94 364.672 165H441.378C441.379 164.988 446.519 82.5052 369.818 82.5052C446.513 82.5052 441.38 0.0357794 441.378 0.00985955H364.672C364.661 0.0726662 354.909 57.0198 295.794 77.2549C330.632 54.1952 334.196 0.452643 334.196 0.452643L277.5 0.520315L220.804 0.452643C220.804 0.452643 224.367 54.1867 259.197 77.2496Z" fill="white"/>
</svg>
