<svg width="267" height="267" viewBox="0 0 267 267" fill="none" xmlns="http://www.w3.org/2000/svg">
<rect x="9" y="9" width="249" height="249" rx="124.5" stroke="white" stroke-width="18"/>
<path d="M156.581 51.4393C156.247 50.013 154.995 49 153.53 49H80.8942C79.309 49 78.0108 50.1862 78.0015 51.7714C77.9154 66.4033 81.2815 134 150.835 134C81.2815 134 77.9154 201.597 78.0015 216.229C78.0108 217.814 79.309 219 80.8942 219H153.53C154.995 219 156.247 217.987 156.581 216.561C159.275 205.023 173.859 155.767 229.394 138.32C232.657 137.295 232.657 130.705 229.394 129.68C173.859 112.233 159.275 62.9765 156.581 51.4393Z" fill="#F0F0F0"/>
</svg>
