<svg width="135" height="135" viewBox="0 0 135 135" fill="none" xmlns="http://www.w3.org/2000/svg">
<rect x="129.101" y="5.89888" width="123.202" height="123.202" rx="61.6011" transform="rotate(90 129.101 5.89888)" fill="#D2E301" stroke="#D2E301" stroke-width="11.7978"/>
<path d="M57.7751 105.092C50.4571 83.2988 35.7145 80.8844 30.0747 80.7957C28.8737 80.7768 27.8096 79.8195 27.8096 78.6184V62.3695C27.8096 61.3952 28.5208 60.5811 29.4949 60.5697C34.6297 60.5095 50.1904 62.2796 57.7751 84.8671C58.4887 86.9923 62.892 87.0168 63.5758 84.8818C72.1789 58.0196 92.8912 39.0666 100.65 32.6903C101.889 31.6726 103.652 32.5736 103.652 34.1765V54.9794C103.652 55.6866 103.281 56.3357 102.681 56.7091C97.5206 59.9176 73.1978 76.2808 63.6281 105.118C62.922 107.245 58.4887 107.217 57.7751 105.092Z" fill="#F5F5F5"/>
</svg>
